<svg width="414" height="990" viewBox="0 0 414 990" fill="none" xmlns="http://www.w3.org/2000/svg">
<g style="mix-blend-mode:luminosity" opacity="0.2" clip-path="url(#clip0_1_1105)">
<mask id="mask0_1_1105" style="mask-type:luminance" maskUnits="userSpaceOnUse" x="-585" y="0" width="1486" height="990">
<path d="M900.841 0H-584.535V990H900.841V0Z" fill="white"/>
</mask>
<g mask="url(#mask0_1_1105)">
<path d="M900.841 0H-584.535V990H900.841V0Z" fill="#28003C"/>
</g>
<mask id="mask1_1_1105" style="mask-type:luminance" maskUnits="userSpaceOnUse" x="-585" y="0" width="1486" height="990">
<path d="M900.841 0H-584.535V990H900.841V0Z" fill="white"/>
</mask>
<g mask="url(#mask1_1_1105)">
<path d="M900.841 0H-584.535V990H900.841V0Z" fill="url(#paint0_linear_1_1105)"/>
</g>
<mask id="mask2_1_1105" style="mask-type:luminance" maskUnits="userSpaceOnUse" x="-585" y="0" width="1486" height="990">
<path d="M900.841 0H-584.535V990H900.841V0Z" fill="white"/>
</mask>
<g mask="url(#mask2_1_1105)">
<path opacity="0.06" d="M-581.96 -279.972C-570.473 -289.08 -437.384 -323.73 -389.456 -286.506C-341.527 -249.282 -359.154 -194.634 -299.145 -189.882C-238.938 -185.13 -214.181 -230.076 -151.201 -207.504C-88.2213 -184.932 -3.25787 -245.124 136.367 -96.822C275.993 51.4799 376.998 -87.516 409.281 -104.544C441.563 -121.572 548.906 -236.412 703.583 -253.242C889.552 -273.438 1025.81 -219.978 1025.81 -99.594C1025.81 20.5919 969.961 87.516 969.961 87.516C969.961 87.516 870.936 17.028 784.586 43.956C698.038 70.686 671.499 194.04 542.766 189.684C414.034 185.328 364.125 107.514 263.714 102.762C163.5 98.01 54.9689 253.638 -141.893 296.406C-338.755 339.174 -420.946 177.408 -612.064 158.4C-803.38 139.194 -814.273 -14.256 -793.874 -61.182C-773.277 -108.306 -581.96 -279.972 -581.96 -279.972Z" fill="url(#paint1_linear_1_1105)"/>
</g>
<mask id="mask3_1_1105" style="mask-type:luminance" maskUnits="userSpaceOnUse" x="-585" y="0" width="1486" height="990">
<path d="M900.841 0H-584.535V990H900.841V0Z" fill="white"/>
</mask>
<g mask="url(#mask3_1_1105)">
<path opacity="0.04" d="M-48.2146 975.348C-48.2146 975.348 -128.821 956.34 -156.35 882.09C-183.879 808.038 -289.836 867.24 -317.365 822.69C-344.894 778.14 -209.229 706.266 -152.191 727.452C-94.9544 748.638 -126.84 865.062 -48.4126 899.118C30.2133 932.976 4.66476 983.862 -48.2146 975.348Z" fill="#CC569D"/>
<path opacity="0.38" d="M988.775 275.418C988.775 275.418 932.529 333.828 850.536 312.444C768.345 291.06 733.489 141.57 649.317 141.57C564.948 141.57 544.747 142.758 507.712 129.294C470.676 115.83 442.553 87.7139 404.329 107.91C366.106 128.106 319.96 241.758 220.935 231.66C121.91 221.562 131.02 111.276 55.5631 114.642C-19.6959 118.008 -52.3742 107.91 -96.3414 76.4279C-140.308 44.9459 -160.708 4.9499 -268.447 11.2859C-395.991 18.6119 -491.055 208.692 -806.351 206.316L-801.796 -21.3841H988.775V275.418Z" fill="#68324C"/>
<path opacity="0.38" d="M919.062 864.666C919.062 864.666 904.01 762.498 791.913 780.912C679.817 799.326 642.98 831.204 587.724 814.374C532.468 797.544 498.997 683.892 428.689 670.428C358.382 656.964 314.811 652.014 274.606 601.722C234.402 551.43 221.133 481.14 140.725 497.97C60.3163 514.8 -31.7771 655.38 -130.406 640.134C-229.035 624.888 -259.337 543.114 -358.164 603.306C-456.991 663.498 -453.624 787.446 -609.291 763.884V686.862C-609.291 686.862 -500.562 728.64 -473.627 643.302C-446.692 557.964 -450.257 474.21 -376.582 455.796C-302.908 437.382 -205.863 495.99 -130.406 412.236C-54.949 328.482 65.4655 266.706 154.984 325.116C244.503 383.724 207.666 460.746 288.074 507.474C368.482 554.4 351.648 597.762 430.274 594.594C508.9 591.228 600.993 490.842 701.404 534.402C801.816 577.962 711.505 728.442 925.795 698.346L919.062 864.666Z" fill="#68324C"/>
<path opacity="0.38" d="M96.1634 1073.95C96.1634 1073.95 -50.5918 1072.57 -118.127 999.108C-185.662 925.848 -184.078 855.36 -261.911 875.952C-339.745 896.544 -333.803 966.834 -395.397 991.782C-456.991 1016.73 -470.26 990.396 -520.169 1018.12C-570.077 1046.03 -644.94 1051.78 -703.563 1015.15C-762.186 978.516 -821.007 991.584 -834.078 1004.85V1073.75H96.1634V1073.95Z" fill="#68324C"/>
</g>
<path opacity="0.27" d="M-620.184 975.348C-601.369 892.386 -595.824 730.026 -391.634 617.166C-289.44 560.736 -269.833 550.044 -197.743 480.546C-125.653 411.048 89.0337 345.312 227.273 411.048C301.343 446.292 423.54 475.596 527.913 475.596C632.285 475.596 705.366 516.384 762.404 588.456C819.641 660.528 821.225 773.784 868.361 796.158C915.497 818.532 997.688 920.304 1017.49 1009.8V1067.02L-620.184 1061.68V975.348Z" fill="url(#paint2_linear_1_1105)"/>
<path opacity="0.5" d="M-556.61 1031.78C-550.47 1023.46 -538.191 907.236 -451.841 814.968C-370.839 728.64 -381.335 724.284 -325.485 668.448C-269.635 612.612 -178.334 592.416 -89.4094 548.856C-0.484802 505.494 140.923 483.516 298.175 514.602C455.427 545.688 496.819 539.352 583.763 595.386C670.707 651.222 701.801 744.282 736.856 777.546C772.109 810.612 852.913 901.89 854.894 1030.19L-556.61 1031.78Z" fill="#6743BF"/>
<g opacity="0.51">
<path d="M-191.999 1004.06C-191.999 1004.06 -206.853 980.1 -170.214 954.162C-144.269 935.748 -122.286 911.196 -108.026 892.98C-93.9645 874.962 -54.9487 835.362 -33.5592 825.66C36.1544 793.98 56.7516 779.922 78.141 768.834C99.5305 757.746 177.958 746.658 179.345 755.568C181.127 768.042 120.92 769.428 120.92 779.328C120.92 789.426 166.669 775.962 193.802 769.032C220.935 761.904 258.169 767.448 283.321 775.566C308.473 783.684 323.921 796.356 344.122 798.336C364.323 800.316 375.414 803.286 389.476 817.542C403.537 831.798 409.875 825.66 429.086 838.728C448.297 851.796 480.381 870.804 471.271 880.902C462.16 891 426.907 843.678 414.826 852.786C402.745 861.894 473.251 898.128 492.264 930.204C511.475 962.478 501.374 976.536 492.264 974.556C483.154 972.576 469.092 920.304 437.998 897.138C406.706 873.972 384.327 862.29 355.213 844.074C326.1 826.056 318.772 813.186 277.379 812.196C236.185 811.206 225.886 796.158 146.072 811.602C101.511 820.314 73.5859 822.096 42.2939 833.184C11.002 844.272 -17.5172 863.874 -35.5397 885.258C-53.5623 906.444 -48.8091 919.512 -21.8743 906.048C5.45663 892.386 31.4012 862.884 81.7059 855.954C132.011 848.826 104.878 865.062 79.7254 872.982C54.573 881.1 38.531 894.168 44.4725 897.138C50.414 900.108 112.998 862.884 178.354 862.884C243.711 862.884 273.022 882.09 291.045 895.158C309.068 908.226 324.317 922.284 347.489 932.382C370.661 942.48 382.742 933.372 413.836 972.576C445.128 1011.78 437.008 1006.04 437.008 1006.04L-191.999 1004.06Z" fill="#251863"/>
<path opacity="0.51" d="M-84.26 1004.45C-84.26 1004.45 -63.6628 977.526 -35.1436 973.764C-6.62438 969.804 31.5993 950.202 68.0405 939.312C104.482 928.422 141.715 945.252 162.312 960.894C182.91 976.536 184.89 977.526 224.104 975.546C263.318 973.566 331.249 953.964 349.866 1006.43L-84.26 1004.45Z" fill="#FCE069"/>
<path d="M-185.464 821.898C-194.97 809.028 -308.849 951.786 -322.118 948.024C-338.16 943.47 -295.381 882.09 -245.869 839.322C-196.554 796.554 -132.782 746.064 -106.442 737.352C-80.101 728.64 -51.5817 707.652 -1.07892 683.496C49.4239 659.34 121.91 669.24 164.689 659.34C207.468 649.44 233.809 639.54 278.766 659.34C323.723 679.14 369.869 669.24 412.648 669.24C455.427 669.24 518.01 719.73 546.53 765.864C575.049 811.998 598.419 808.038 645.159 879.516C705.168 971.19 714.674 1006.63 714.674 1006.63H571.88C571.88 949.806 529.101 852.786 502.959 823.086C476.816 793.386 411.658 748.44 357.788 742.896C303.918 737.352 241.533 688.05 174.394 706.662C107.453 725.274 97.55 717.552 3.08014 740.718C-91.3898 763.884 -195.366 862.488 -195.366 862.488C-195.366 862.488 -221.707 886.644 -226.46 879.516C-230.619 872.586 -178.532 831.204 -185.464 821.898Z" fill="#B597FF"/>
<path d="M-398.962 1010.59C-398.962 1010.59 -361.134 847.836 -194.376 750.222C-62.4746 672.804 -4.44589 636.768 51.8004 627.264C108.047 617.562 253.019 614.79 262.328 609.444C283.321 597.564 194 591.228 94.5792 604.692C46.453 611.226 39.5213 589.644 157.559 577.368C275.597 565.29 432.849 623.7 439.582 606.87C445.128 592.812 299.561 550.44 164.887 553.608C30.2129 556.776 -9.00104 607.068 -100.5 630.036C-192.594 653.202 -299.541 732.204 -335.586 773.586C-371.631 815.166 -390.248 845.064 -422.332 881.298C-454.416 917.532 -478.38 948.42 -486.896 1010.59H-398.962Z" fill="#251863"/>
<path d="M-131.792 863.676C-131.792 863.676 -96.9352 829.62 -55.3447 806.85C-13.7542 784.08 4.46643 774.972 6.05084 768.24C7.63524 761.508 -34.9456 777.348 -87.0328 810.612C-139.12 843.876 -156.152 879.714 -131.792 863.676Z" fill="#FCE069"/>
<path d="M301.146 868.23C301.146 868.23 346.697 885.852 384.525 914.166C422.55 942.678 438.394 955.35 445.128 953.964C451.862 952.578 419.778 920.502 367.889 886.842C315.801 853.182 276.587 852.984 301.146 868.23Z" fill="#FCE069"/>
</g>
<path opacity="0.35" d="M363.135 1006.04C363.135 1006.04 364.323 979.506 328.476 967.032C292.629 954.558 243.909 967.626 219.945 962.478C196.179 957.33 251.831 943.272 284.707 947.628C317.584 952.182 349.47 941.292 369.275 953.964C388.09 965.844 405.716 983.07 411.459 998.91C411.855 999.9 412.054 1000.69 412.252 1001.68C417.005 1018.12 363.135 1006.04 363.135 1006.04Z" fill="#251863"/>
<path opacity="0.35" d="M107.254 802.098C107.254 802.098 111.017 791.208 132.605 791.208C154.192 791.208 170.036 784.08 191.822 779.922C213.607 775.764 222.718 768.636 248.068 775.368C273.418 782.1 293.818 789.822 309.068 793.584C324.515 797.346 338.181 805.662 338.181 809.028C338.181 812.394 319.96 809.028 301.542 802.296C283.321 795.564 269.061 792.99 244.107 791.406C219.153 789.822 217.964 786.852 180.929 796.554C144.29 806.256 100.719 808.83 107.254 802.098Z" fill="#251863"/>
<path opacity="0.35" d="M-183.879 999.306C-183.879 999.306 -179.324 974.556 -157.737 961.488C-136.149 948.42 -113.373 930.6 -99.708 912.582C-86.0425 894.564 -70.0005 868.032 -61.8804 882.882C-53.7603 897.732 -87.825 926.838 -68.02 934.362C-48.215 941.886 0.109314 900.9 13.7748 908.424C27.4402 915.948 29.2227 920.898 58.3361 910.206C87.4494 899.514 106.66 904.662 104.68 913.968C102.897 923.274 50.216 925.65 29.2227 936.342C8.22934 946.836 -14.1503 958.716 -45.0461 964.26C-75.942 969.804 -91.3899 985.842 -98.9158 999.504H-183.879V999.306Z" fill="#251863"/>
<path opacity="0.47" d="M202.121 684.684C202.121 684.684 247.474 682.11 286.886 700.92C326.1 719.73 344.123 733.986 390.268 734.976C436.414 735.966 503.157 766.854 535.637 824.868C568.117 882.882 572.474 861.498 566.335 837.54C560.393 813.582 512.465 789.03 494.641 757.746C476.618 726.462 437.404 701.712 396.408 700.722C355.411 699.93 333.23 702.504 292.233 688.842C251.237 675.18 180.335 673.992 141.913 684.486C103.095 694.98 202.121 684.684 202.121 684.684Z" fill="#DDD2FF"/>
<path d="M175.78 837.738C175.78 841.896 172.413 845.46 168.056 845.46C163.897 845.46 160.332 842.094 160.332 837.738C160.332 833.58 163.699 830.016 168.056 830.016C172.413 830.016 175.78 833.382 175.78 837.738Z" fill="#FCE069"/>
<path d="M202.12 825.066C202.12 827.838 199.744 830.214 196.971 830.214C194.198 830.214 191.822 827.838 191.822 825.066C191.822 822.294 194.198 819.918 196.971 819.918C199.942 819.918 202.12 822.096 202.12 825.066Z" fill="#B597FF"/>
<path d="M221.727 737.946C221.727 743.292 217.37 747.648 212.023 747.648C206.676 747.648 202.318 743.292 202.318 737.946C202.318 732.6 206.676 728.244 212.023 728.244C217.37 728.244 221.727 732.6 221.727 737.946Z" fill="white"/>
<path d="M96.1637 742.302C96.1637 744.678 94.1832 746.658 91.8066 746.658C89.43 746.658 87.4495 744.678 87.4495 742.302C87.4495 739.926 89.43 737.946 91.8066 737.946C94.3812 737.946 96.1637 739.926 96.1637 742.302Z" fill="#B597FF"/>
<path d="M348.876 638.748C348.876 642.708 345.707 645.876 341.746 645.876C337.785 645.876 334.616 642.708 334.616 638.748C334.616 634.788 337.785 631.62 341.746 631.62C345.707 631.422 348.876 634.788 348.876 638.748Z" fill="#B597FF"/>
<path d="M321.743 616.176C321.743 620.928 317.98 624.69 313.227 624.69C308.473 624.69 304.71 620.928 304.71 616.176C304.71 611.424 308.473 607.662 313.227 607.662C317.98 607.662 321.743 611.622 321.743 616.176Z" fill="#B597FF"/>
<path d="M85.0728 536.58C85.0728 540.738 81.706 544.302 77.3489 544.302C72.9918 544.302 69.6249 540.936 69.6249 536.58C69.6249 532.422 72.9918 528.858 77.3489 528.858C81.706 528.858 85.0728 532.224 85.0728 536.58Z" fill="white"/>
<path d="M204.497 489.456C202.912 490.248 201.526 491.634 200.734 493.218C199.546 495.396 198.159 506.286 199.546 508.464C201.526 511.434 204.893 511.83 205.883 514.602C207.071 517.572 208.656 520.542 213.013 521.928C217.37 523.314 226.678 519.948 227.471 518.166C228.263 516.384 229.649 511.434 231.234 509.256C232.818 507.078 235.195 504.306 234.6 501.534C234.006 498.762 232.818 495.198 228.857 494.208C224.896 493.218 220.341 497.178 218.36 496.188C216.38 495 211.429 488.862 207.864 488.664C206.675 488.664 205.487 488.862 204.497 489.456Z" fill="#A35152"/>
<path d="M233.412 497.97C233.412 498.168 233.214 502.524 233.016 503.316C232.62 504.9 229.253 506.484 227.471 506.682C225.688 506.88 218.558 503.91 218.36 504.702C218.162 505.098 220.935 506.682 223.312 507.672C224.896 508.464 225.094 510.444 223.906 511.632C222.916 512.622 221.727 513.414 220.341 513.414C216.974 513.612 215.984 513.018 215.192 511.83C214.795 511.236 215.39 508.266 214.399 507.672C213.409 507.078 205.685 510.444 201.13 507.672C200.14 507.078 199.348 498.168 198.951 496.98C198.555 498.366 198.753 507.276 199.348 508.266C201.328 511.236 205.487 511.434 205.685 514.404C206.279 520.344 208.458 520.344 212.815 521.73C217.172 523.116 226.48 519.75 227.273 517.968C228.065 516.186 229.451 511.236 231.036 509.058C232.62 506.88 234.997 504.108 234.402 501.336C234.402 500.346 234.006 499.158 233.412 497.97Z" fill="#804446"/>
<path d="M228.857 494.208C224.896 493.218 220.341 497.178 218.36 496.188C216.38 495 211.429 488.862 207.864 488.664C206.477 488.664 205.289 488.862 204.497 489.456C202.912 490.248 201.526 491.634 200.734 493.218C200.536 493.614 200.338 494.01 200.14 494.406C202.516 493.218 204.893 495.396 206.873 495.198C210.24 494.802 215.39 503.316 215.39 503.316L222.321 499.356C221.925 498.564 222.123 497.574 222.916 497.178C224.302 496.386 226.678 495.396 228.461 495.594C231.234 495.99 233.016 497.574 233.214 497.772C232.422 496.188 231.036 494.802 228.857 494.208Z" fill="#FF7683"/>
<path d="M215.39 523.116C214.399 523.116 213.409 522.918 212.617 522.72C209.25 521.532 205.685 520.938 205.487 518.166C205.487 516.978 205.289 515.79 205.091 514.998C204.497 513.612 203.507 513.018 202.318 512.226C201.13 511.434 199.744 510.444 198.753 508.86C197.367 506.484 198.555 495.594 199.942 492.822C200.932 491.04 202.318 489.456 204.101 488.664C205.289 488.07 206.675 487.674 207.864 487.872C211.032 488.07 216.182 493.812 217.568 494.802C217.964 495 218.36 495.396 218.756 495.594C219.351 495.99 220.737 495.396 222.123 494.802C224.104 494.01 226.678 493.02 229.055 493.614C233.808 494.802 234.798 499.356 235.393 501.534C235.987 504.306 234.204 506.88 232.62 508.86C232.422 509.256 232.224 509.454 232.026 509.652C231.035 511.038 230.045 514.008 229.253 515.988C228.857 516.978 228.461 517.77 228.263 518.364C226.876 521.532 220.341 523.116 215.39 523.116ZM204.893 490.05C203.507 490.644 202.318 492.03 201.328 493.614C199.546 496.782 199.149 506.88 199.942 508.068C200.734 509.454 201.922 510.246 203.11 510.84C204.497 511.632 205.883 512.622 206.477 514.404C206.873 515.394 206.873 516.78 207.071 517.968C207.27 520.542 210.636 520.344 213.211 521.334C217.37 522.72 225.886 520.344 226.876 517.968C227.075 517.374 227.471 516.582 227.867 515.592C228.659 513.414 229.649 510.444 230.837 508.86C231.036 508.662 231.234 508.266 231.432 507.87C232.818 505.89 234.402 503.712 234.006 501.732C233.214 498.762 232.224 495.792 228.857 495C226.876 494.604 224.698 495.396 222.915 496.188C221.133 496.98 219.549 497.574 218.36 496.782C217.964 496.584 217.568 496.188 217.172 495.99C215.786 495 210.834 489.456 208.26 489.456C206.873 489.258 205.883 489.654 204.893 490.05Z" fill="#663236"/>
<g opacity="0.49">
<path d="M397.794 516.78C397.794 515.988 398.388 515.196 399.378 515.196C400.17 515.196 400.963 515.79 400.963 516.78C400.963 517.572 400.368 518.364 399.378 518.364C398.388 518.364 397.794 517.77 397.794 516.78Z" fill="#D8CEED"/>
<path d="M397.002 500.544C398.205 500.544 399.18 499.569 399.18 498.366C399.18 497.163 398.205 496.188 397.002 496.188C395.798 496.188 394.823 497.163 394.823 498.366C394.823 499.569 395.798 500.544 397.002 500.544Z" fill="#D8CEED"/>
<path d="M411.855 510.84C411.855 509.454 413.044 508.266 414.43 508.266C415.816 508.266 417.005 509.454 417.005 510.84C417.005 512.226 415.816 513.414 414.43 513.414C413.044 513.612 411.855 512.424 411.855 510.84Z" fill="#D8CEED"/>
<path d="M370.661 441.54C370.661 439.758 372.047 438.372 373.83 438.372C375.612 438.372 376.999 439.758 376.999 441.54C376.999 443.322 375.612 444.708 373.83 444.708C372.047 444.708 370.661 443.322 370.661 441.54Z" fill="#D8CEED"/>
<path d="M367.69 454.41C369.221 454.41 370.463 453.169 370.463 451.638C370.463 450.107 369.221 448.866 367.69 448.866C366.159 448.866 364.917 450.107 364.917 451.638C364.917 453.169 366.159 454.41 367.69 454.41Z" fill="#D8CEED"/>
<path d="M358.382 443.124C358.382 442.332 359.174 441.54 359.966 441.54C360.758 441.54 361.551 442.332 361.551 443.124C361.551 443.916 360.758 444.708 359.966 444.708C358.976 444.708 358.382 444.114 358.382 443.124Z" fill="#D8CEED"/>
<path d="M6.05066 974.556C6.05066 972.774 7.43696 971.388 9.21941 971.388C11.0019 971.388 12.3882 972.774 12.3882 974.556C12.3882 976.338 11.0019 977.724 9.21941 977.724C7.43696 977.724 6.05066 976.338 6.05066 974.556Z" fill="#D8CEED"/>
<path d="M396.209 645.48C396.209 644.292 397.2 643.104 398.586 643.104C399.972 643.104 400.963 644.094 400.963 645.48C400.963 646.668 399.972 647.856 398.586 647.856C397.2 647.856 396.209 646.866 396.209 645.48Z" fill="#D8CEED"/>
<path d="M295.6 124.938C295.6 123.948 296.392 122.958 297.58 122.958C298.769 122.958 299.561 123.75 299.561 124.938C299.561 125.928 298.769 126.918 297.58 126.918C296.392 126.918 295.6 125.928 295.6 124.938Z" fill="#D8CEED"/>
<path d="M285.301 137.412C285.301 135.432 286.886 133.848 288.866 133.848C290.847 133.848 292.431 135.432 292.431 137.412C292.431 139.392 290.847 140.976 288.866 140.976C286.886 140.976 285.301 139.392 285.301 137.412Z" fill="#D8CEED"/>
<path d="M274.012 119.79C274.997 119.79 275.795 118.992 275.795 118.008C275.795 117.024 274.997 116.226 274.012 116.226C273.028 116.226 272.23 117.024 272.23 118.008C272.23 118.992 273.028 119.79 274.012 119.79Z" fill="#D8CEED"/>
<path d="M259.357 130.284C259.357 128.304 260.941 126.72 262.922 126.72C264.902 126.72 266.487 128.304 266.487 130.284C266.487 132.264 264.902 133.848 262.922 133.848C260.941 133.848 259.357 132.264 259.357 130.284Z" fill="#D8CEED"/>
<path d="M227.075 147.906C227.075 145.926 228.659 144.342 230.64 144.342C232.62 144.342 234.204 145.926 234.204 147.906C234.204 149.886 232.62 151.47 230.64 151.47C228.659 151.47 227.075 149.886 227.075 147.906Z" fill="#D8CEED"/>
<path d="M220.935 116.226C224.326 116.226 227.075 113.478 227.075 110.088C227.075 106.698 224.326 103.95 220.935 103.95C217.544 103.95 214.796 106.698 214.796 110.088C214.796 113.478 217.544 116.226 220.935 116.226Z" fill="#D8CEED"/>
<path d="M191.03 123.948C191.03 123.354 191.426 122.958 192.02 122.958C192.614 122.958 193.01 123.354 193.01 123.948C193.01 124.542 192.614 124.938 192.02 124.938C191.426 124.938 191.03 124.542 191.03 123.948Z" fill="#D8CEED"/>
<path d="M297.382 180.18C297.382 178.2 298.967 176.616 300.947 176.616C302.928 176.616 304.512 178.2 304.512 180.18C304.512 182.16 302.928 183.744 300.947 183.744C298.967 183.744 297.382 182.16 297.382 180.18Z" fill="#D8CEED"/>
<path d="M272.032 167.31C274.11 167.31 275.795 165.626 275.795 163.548C275.795 161.47 274.11 159.786 272.032 159.786C269.954 159.786 268.269 161.47 268.269 163.548C268.269 165.626 269.954 167.31 272.032 167.31Z" fill="#D8CEED"/>
</g>
<g opacity="0.3">
<path d="M89.8258 58.608C89.2316 58.608 88.6375 58.014 88.6375 57.42C88.6375 56.826 89.2316 56.232 89.8258 56.232C90.4199 56.232 91.0141 56.826 91.0141 57.42C91.0141 58.014 90.618 58.608 89.8258 58.608Z" fill="#D8CEED"/>
<path d="M91.6081 42.966C92.5925 42.966 93.3906 42.1681 93.3906 41.184C93.3906 40.1998 92.5925 39.402 91.6081 39.402C90.6237 39.402 89.8257 40.1998 89.8257 41.184C89.8257 42.1681 90.6237 42.966 91.6081 42.966Z" fill="#D8CEED"/>
<path d="M100.52 70.092C99.5302 70.092 98.738 69.3 98.738 68.31C98.738 67.32 99.5302 66.528 100.52 66.528C101.511 66.528 102.303 67.32 102.303 68.31C102.303 69.3 101.511 70.092 100.52 70.092Z" fill="#D8CEED"/>
<path d="M175.581 6.53402C176.128 6.53402 176.572 6.09078 176.572 5.54402C176.572 4.99725 176.128 4.55402 175.581 4.55402C175.035 4.55402 174.591 4.99725 174.591 5.54402C174.591 6.09078 175.035 6.53402 175.581 6.53402Z" fill="#D8CEED"/>
<path d="M242.564 16.1348C242.722 15.1632 242.061 14.2482 241.089 14.091C240.118 13.9338 239.202 14.594 239.045 15.5656C238.888 16.5372 239.548 17.4522 240.52 17.6094C241.492 17.7666 242.407 17.1063 242.564 16.1348Z" fill="#D8CEED"/>
<path d="M264.506 5.93997C265.272 5.93997 265.892 5.31944 265.892 4.55397C265.892 3.7885 265.272 3.16797 264.506 3.16797C263.74 3.16797 263.12 3.7885 263.12 4.55397C263.12 5.31944 263.74 5.93997 264.506 5.93997Z" fill="#D8CEED"/>
<path d="M322.931 35.838C323.478 35.838 323.921 35.3948 323.921 34.848C323.921 34.3013 323.478 33.858 322.931 33.858C322.384 33.858 321.941 34.3013 321.941 34.848C321.941 35.3948 322.384 35.838 322.931 35.838Z" fill="#D8CEED"/>
<path d="M97.9458 964.854C99.6959 964.854 101.115 963.436 101.115 961.686C101.115 959.936 99.6959 958.518 97.9458 958.518C96.1957 958.518 94.777 959.936 94.777 961.686C94.777 963.436 96.1957 964.854 97.9458 964.854Z" fill="#D8CEED"/>
<path d="M93.1925 946.638C94.5789 946.638 95.5691 947.628 95.5691 949.014C95.5691 950.4 94.5789 951.39 93.1925 951.39C91.8062 951.39 90.8159 950.4 90.8159 949.014C90.8159 947.628 92.0042 946.638 93.1925 946.638Z" fill="#D8CEED"/>
<path d="M104.481 944.46C106.462 944.46 108.046 946.044 108.046 948.024C108.046 950.004 106.462 951.588 104.481 951.588C102.501 951.588 100.917 950.004 100.917 948.024C100.917 946.044 102.501 944.46 104.481 944.46Z" fill="#D8CEED"/>
<path d="M126.267 966.24C127.257 966.24 128.049 967.032 128.049 968.022C128.049 969.012 127.257 969.804 126.267 969.804C125.277 969.804 124.484 969.012 124.484 968.022C124.286 967.032 125.277 966.24 126.267 966.24Z" fill="#D8CEED"/>
<path d="M99.5302 898.92C100.322 898.92 101.115 899.514 101.115 900.504C101.115 901.296 100.52 902.088 99.5302 902.088C98.738 902.088 97.9458 901.494 97.9458 900.504C97.9458 899.712 98.5399 898.92 99.5302 898.92Z" fill="#D8CEED"/>
<path d="M117.949 900.504C119.152 900.504 120.127 899.529 120.127 898.326C120.127 897.123 119.152 896.148 117.949 896.148C116.746 896.148 115.77 897.123 115.77 898.326C115.77 899.529 116.746 900.504 117.949 900.504Z" fill="#D8CEED"/>
<path d="M105.472 913.176C106.858 913.176 108.046 914.364 108.046 915.75C108.046 917.136 106.858 918.324 105.472 918.324C104.085 918.324 102.897 917.136 102.897 915.75C102.699 914.364 103.887 913.176 105.472 913.176Z" fill="#D8CEED"/>
<path d="M174.789 871.992C176.572 871.992 177.958 873.378 177.958 875.16C177.958 876.942 176.572 878.328 174.789 878.328C173.007 878.328 171.62 876.942 171.62 875.16C171.62 873.378 173.007 871.992 174.789 871.992Z" fill="#D8CEED"/>
<path d="M164.689 871.794C166.22 871.794 167.461 870.553 167.461 869.022C167.461 867.491 166.22 866.25 164.689 866.25C163.157 866.25 161.916 867.491 161.916 869.022C161.916 870.553 163.157 871.794 164.689 871.794Z" fill="#D8CEED"/>
<path d="M173.205 859.716C173.997 859.716 174.789 860.508 174.789 861.3C174.789 862.092 173.997 862.884 173.205 862.884C172.413 862.884 171.62 862.092 171.62 861.3C171.62 860.31 172.215 859.716 173.205 859.716Z" fill="#D8CEED"/>
<path d="M329.268 441.342C331.051 441.342 332.437 442.728 332.437 444.51C332.437 446.292 331.051 447.678 329.268 447.678C327.486 447.678 326.1 446.292 326.1 444.51C326.1 442.926 327.486 441.342 329.268 441.342Z" fill="#D8CEED"/>
<path d="M315.999 425.7C317.385 425.7 318.574 426.888 318.574 428.274C318.574 429.66 317.385 430.848 315.999 430.848C314.613 430.848 313.424 429.66 313.424 428.274C313.424 426.888 314.613 425.7 315.999 425.7Z" fill="#D8CEED"/>
<path d="M335.606 422.136C337.389 422.136 338.775 423.522 338.775 425.304C338.775 427.086 337.389 428.472 335.606 428.472C333.824 428.472 332.437 427.086 332.437 425.304C332.437 423.522 333.824 422.136 335.606 422.136Z" fill="#D8CEED"/>
<path d="M318.574 402.732C319.96 402.732 321.148 403.92 321.148 405.306C321.148 406.692 319.96 407.88 318.574 407.88C317.187 407.88 315.999 406.692 315.999 405.306C315.999 403.92 316.989 402.732 318.574 402.732Z" fill="#D8CEED"/>
<path d="M355.015 470.646C356.797 470.646 358.382 472.23 358.382 474.012C358.382 475.794 356.797 477.378 355.015 477.378C353.232 477.378 351.648 475.794 351.648 474.012C351.648 472.23 353.034 470.646 355.015 470.646Z" fill="#D8CEED"/>
<path d="M382.908 366.239C384.122 363.309 382.731 359.95 379.8 358.737C376.869 357.523 373.51 358.915 372.296 361.844C371.082 364.774 372.473 368.133 375.404 369.347C378.335 370.561 381.694 369.169 382.908 366.239Z" fill="#D8CEED"/>
<path d="M63.4851 273.834C64.6883 273.834 65.6636 272.859 65.6636 271.656C65.6636 270.453 64.6883 269.478 63.4851 269.478C62.2819 269.478 61.3065 270.453 61.3065 271.656C61.3065 272.859 62.2819 273.834 63.4851 273.834Z" fill="#D8CEED"/>
<path d="M36.1542 254.826C37.7386 254.826 38.9268 256.014 38.9268 257.598C38.9268 259.182 37.7386 260.37 36.1542 260.37C34.5698 260.37 33.3815 259.182 33.3815 257.598C33.3815 256.014 34.5698 254.826 36.1542 254.826Z" fill="#D8CEED"/>
<path d="M58.7319 249.678C60.1182 249.678 61.3065 250.866 61.3065 252.252C61.3065 253.638 60.1182 254.826 58.7319 254.826C57.3455 254.826 56.1572 253.638 56.1572 252.252C56.1572 250.866 57.3455 249.678 58.7319 249.678Z" fill="#D8CEED"/>
<path d="M41.1053 235.422C42.2936 235.422 43.2839 236.412 43.2839 237.6C43.2839 238.788 42.2936 239.778 41.1053 239.778C39.917 239.778 38.9268 238.788 38.9268 237.6C38.9268 236.412 39.917 235.422 41.1053 235.422Z" fill="#D8CEED"/>
<path d="M27.8361 132.858C29.2224 132.858 30.2127 134.046 30.2127 135.234C30.2127 136.62 29.0244 137.61 27.8361 137.61C26.6478 137.61 25.4595 136.62 25.4595 135.432C25.4595 134.046 26.6478 132.858 27.8361 132.858Z" fill="#D8CEED"/>
</g>
<path d="M402.943 647.064C402.943 648.846 401.557 650.232 399.774 650.232C397.992 650.232 396.605 648.846 396.605 647.064C396.605 645.282 397.992 643.896 399.774 643.896C401.557 643.896 402.943 645.282 402.943 647.064Z" fill="#D8CEED"/>
<path d="M418.589 633.798C418.589 635.184 417.401 636.372 416.014 636.372C414.628 636.372 413.44 635.184 413.44 633.798C413.44 632.412 414.628 631.224 416.014 631.224C417.401 631.224 418.589 632.412 418.589 633.798Z" fill="#D8CEED"/>
<path d="M373.632 672.804C373.632 674.586 372.047 676.17 370.265 676.17C368.482 676.17 366.898 674.586 366.898 672.804C366.898 671.022 368.482 669.438 370.265 669.438C372.047 669.438 373.632 670.824 373.632 672.804Z" fill="#D8CEED"/>
<path d="M367.492 11.484C367.492 12.276 366.898 12.87 366.106 12.87C365.314 12.87 364.719 12.276 364.719 11.484C364.719 10.692 365.314 10.098 366.106 10.098C366.898 10.098 367.492 10.692 367.492 11.484Z" fill="#D8CEED"/>
<path d="M47.4432 809.226C47.4432 810.216 46.651 811.206 45.4627 811.206C44.4724 811.206 43.4822 810.414 43.4822 809.226C43.4822 808.236 44.2744 807.246 45.4627 807.246C46.4529 807.246 47.4432 808.236 47.4432 809.226Z" fill="#D8CEED"/>
<path d="M57.7417 796.752C57.7417 798.732 56.1573 800.316 54.1768 800.316C52.1963 800.316 50.6119 798.732 50.6119 796.752C50.6119 794.772 52.1963 793.188 54.1768 793.188C56.1573 793.188 57.7417 794.772 57.7417 796.752Z" fill="#D8CEED"/>
<path d="M70.6149 816.156C70.6149 817.146 69.8227 817.938 68.8325 817.938C67.8422 817.938 67.05 817.146 67.05 816.156C67.05 815.166 67.8422 814.374 68.8325 814.374C69.8227 814.374 70.6149 815.166 70.6149 816.156Z" fill="#D8CEED"/>
<path d="M83.4882 803.682C83.4882 805.662 81.9038 807.246 79.9233 807.246C77.9428 807.246 76.3584 805.662 76.3584 803.682C76.3584 801.702 77.9428 800.118 79.9233 800.118C81.9038 800.316 83.4882 801.9 83.4882 803.682Z" fill="#D8CEED"/>
<path d="M115.77 786.06C115.77 788.04 114.186 789.624 112.206 789.624C110.225 789.624 108.641 788.04 108.641 786.06C108.641 784.08 110.225 782.496 112.206 782.496C114.186 782.496 115.77 784.278 115.77 786.06Z" fill="#D8CEED"/>
<path d="M122.108 830.214C125.499 830.214 128.248 827.466 128.248 824.076C128.248 820.686 125.499 817.938 122.108 817.938C118.717 817.938 115.969 820.686 115.969 824.076C115.969 827.466 118.717 830.214 122.108 830.214Z" fill="#D8CEED"/>
<path d="M151.815 810.216C151.815 810.81 151.419 811.206 150.825 811.206C150.231 811.206 149.835 810.81 149.835 810.216C149.835 809.622 150.231 809.226 150.825 809.226C151.419 809.226 151.815 809.622 151.815 810.216Z" fill="#D8CEED"/>
<path d="M45.4626 753.984C45.4626 755.964 43.8781 757.548 41.8976 757.548C39.9171 757.548 38.3328 755.964 38.3328 753.984C38.3328 752.004 39.9171 750.42 41.8976 750.42C43.8781 750.42 45.4626 752.004 45.4626 753.984Z" fill="#D8CEED"/>
<path d="M70.813 774.378C72.8912 774.378 74.5759 772.694 74.5759 770.616C74.5759 768.538 72.8912 766.854 70.813 766.854C68.7348 766.854 67.05 768.538 67.05 770.616C67.05 772.694 68.7348 774.378 70.813 774.378Z" fill="#D8CEED"/>
</g>
<defs>
<linearGradient id="paint0_linear_1_1105" x1="158.153" y1="990" x2="158.153" y2="0" gradientUnits="userSpaceOnUse">
<stop offset="0.0403957" stop-color="#78358F"/>
<stop offset="0.1241" stop-color="#5E2C83"/>
<stop offset="0.2251" stop-color="#472479"/>
<stop offset="0.333" stop-color="#361E71"/>
<stop offset="0.4514" stop-color="#2C1A6C"/>
<stop offset="0.6006" stop-color="#29196B"/>
</linearGradient>
<linearGradient id="paint1_linear_1_1105" x1="-756.384" y1="-225.3" x2="969.785" y2="180.898" gradientUnits="userSpaceOnUse">
<stop offset="0.0265015" stop-color="#1CABA4"/>
<stop offset="0.5247" stop-color="#78358F"/>
<stop offset="0.6431" stop-color="#635094"/>
<stop offset="0.8962" stop-color="#2D95A0"/>
<stop offset="1" stop-color="#15B3A5"/>
</linearGradient>
<linearGradient id="paint2_linear_1_1105" x1="-620.16" y1="725.175" x2="1017.59" y2="725.175" gradientUnits="userSpaceOnUse">
<stop offset="0.0403957" stop-color="#78358F"/>
<stop offset="0.2286" stop-color="#662F87"/>
<stop offset="0.7405" stop-color="#3A1F73"/>
<stop offset="1" stop-color="#29196B"/>
</linearGradient>
<clipPath id="clip0_1_1105">
<rect width="711" height="990" fill="white" transform="translate(-131)"/>
</clipPath>
</defs>
</svg>
