<svg width="30" height="30" viewBox="0 0 30 30" fill="none" xmlns="http://www.w3.org/2000/svg">
<path d="M15 26.25C17.6027 26.25 20.125 25.3475 22.1369 23.6963C24.1488 22.0451 25.526 19.7474 26.0337 17.1947C26.5415 14.6419 26.1484 11.9921 24.9215 9.69671C23.6945 7.40131 21.7096 5.60234 19.305 4.60633C16.9004 3.61032 14.2248 3.47889 11.7341 4.23445C9.24345 4.99 7.09181 6.58579 5.64582 8.7499C4.19983 10.914 3.54894 13.5126 3.80407 16.1028C4.0592 18.693 5.20456 21.1146 7.04499 22.955" stroke="#4CAF50" stroke-width="2" stroke-linecap="round"/>
<path d="M20 12.5L15.5025 17.8975C14.6838 18.88 14.2737 19.3725 13.7225 19.3975C13.1712 19.4225 12.7188 18.9688 11.8138 18.0638L10 16.25" stroke="#4CAF50" stroke-width="2" stroke-linecap="round"/>
</svg>
