<svg width="19" height="19" viewBox="0 0 19 19" fill="none" xmlns="http://www.w3.org/2000/svg">
<g id="thumb_up_24px">
<path id="icon/action/thumb_up_24px" fill-rule="evenodd" clip-rule="evenodd" d="M7.12496 17.4166H14.25C14.907 17.4166 15.4691 17.0208 15.7066 16.4508L18.0975 10.8696C18.1687 10.6875 18.2083 10.4975 18.2083 10.2916V8.70831C18.2083 7.83748 17.4958 7.12498 16.625 7.12498H11.6295L12.3816 3.50706L12.4054 3.25373C12.4054 2.92915 12.2708 2.62831 12.057 2.41456L11.2179 1.58331L6.00079 6.8004C5.71579 7.0854 5.54163 7.48123 5.54163 7.91665V15.8333C5.54163 16.7041 6.25413 17.4166 7.12496 17.4166ZM7.12496 7.91665L10.5608 4.48081L9.49996 8.70831H16.625V10.2916L14.25 15.8333H7.12496V7.91665ZM3.95829 7.91665H0.791626V17.4166H3.95829V7.91665Z" fill="#DCB209"/>
</g>
</svg>
