<svg width="32" height="50" viewBox="0 0 32 50" fill="none" xmlns="http://www.w3.org/2000/svg">
<path d="M20.8562 3.55653C16.6653 3.55653 13.2679 5.43004 13.2679 7.7445C13.2679 10.059 16.6663 11.9334 20.8562 11.9334C25.047 11.9334 28.4444 10.059 28.4444 7.7445C28.4444 5.43004 25.0461 3.55653 20.8562 3.55653ZM28.4444 8.98865C28.4425 11.3031 25.047 13.1776 20.8562 13.1776C16.6769 13.1776 13.2873 11.3235 13.2679 9.01973V10.6582C13.2679 11.6469 13.9011 12.5521 14.9384 13.2689C15.9874 13.5544 16.9217 13.9507 17.6996 14.4519C18.6641 14.6966 19.7247 14.8462 20.8562 14.8462C25.047 14.8462 28.4444 12.9727 28.4444 10.6582V8.98865ZM28.4444 11.9024C28.4444 14.2168 25.047 16.0913 20.8562 16.0913C20.3463 16.0913 19.8509 16.0534 19.3692 16C19.7493 16.512 20.0087 17.1033 20.1277 17.7298C20.3696 17.7434 20.6085 17.7599 20.8562 17.7599C25.047 17.7599 28.4444 15.8864 28.4444 13.5719V11.9024ZM11.1438 14.2392C6.95293 14.2392 3.55554 16.1136 3.55554 18.4281C3.55554 20.7425 6.9539 22.617 11.1438 22.617C15.3347 22.617 18.7321 20.7425 18.7321 18.4281C18.7321 16.1136 15.3337 14.2392 11.1438 14.2392ZM28.4444 14.8161C28.4425 17.1305 25.047 19.005 20.8562 19.005C20.6124 19.005 20.3657 18.9875 20.1277 18.9739C20.1171 19.0468 20.1112 19.1439 20.0976 19.2167C20.1462 19.3634 20.188 19.5081 20.188 19.6732V20.6445C20.4084 20.6551 20.6299 20.6736 20.8562 20.6736C25.047 20.6736 28.4444 18.8001 28.4444 16.4856V14.8161ZM28.4444 17.7298C28.4425 20.0442 25.047 21.9187 20.8562 21.9187C20.6124 21.9187 20.3657 21.9012 20.1277 21.8876C20.1171 21.9605 20.1112 22.0576 20.0976 22.1304C20.1462 22.2761 20.188 22.4218 20.188 22.5869V23.5582C20.4084 23.5688 20.6299 23.5873 20.8562 23.5873C25.047 23.5873 28.4444 21.7138 28.4444 19.3993V17.7298ZM18.7321 19.6722C18.7301 21.9867 15.3347 23.8612 11.1438 23.8612C6.96458 23.8612 3.57497 22.0071 3.55554 19.7024V21.3418C3.55554 23.6563 6.95195 25.5307 11.1438 25.5307C15.3357 25.5307 18.7321 23.6563 18.7321 21.3418V19.6722ZM18.7321 22.586C18.7301 24.9004 15.3347 26.7749 11.1438 26.7749C6.96458 26.7749 3.57497 24.9208 3.55554 22.6161V24.2555C3.55554 26.57 6.95195 28.4444 11.1438 28.4444C15.3357 28.4444 18.7321 26.57 18.7321 24.2555V22.586Z" fill="#A0A8BA"/>
<path d="M10.2227 43H6.2327V35.86H10.2227V36.65H7.1327V38.88H10.0427V39.66H7.1327V42.21H10.2227V43ZM13.6993 37.55C14.3527 37.55 14.836 37.6933 15.1493 37.98C15.4627 38.2667 15.6193 38.7233 15.6193 39.35V43H14.9793L14.8093 42.24H14.7693C14.616 42.4333 14.456 42.5967 14.2893 42.73C14.1293 42.8567 13.9427 42.95 13.7293 43.01C13.5227 43.07 13.2693 43.1 12.9693 43.1C12.6493 43.1 12.3593 43.0433 12.0993 42.93C11.846 42.8167 11.646 42.6433 11.4993 42.41C11.3527 42.17 11.2793 41.87 11.2793 41.51C11.2793 40.9767 11.4893 40.5667 11.9093 40.28C12.3293 39.9867 12.976 39.8267 13.8493 39.8L14.7593 39.77V39.45C14.7593 39.0033 14.6627 38.6933 14.4693 38.52C14.276 38.3467 14.0027 38.26 13.6493 38.26C13.3693 38.26 13.1027 38.3033 12.8493 38.39C12.596 38.47 12.3593 38.5633 12.1393 38.67L11.8693 38.01C12.1027 37.8833 12.3793 37.7767 12.6993 37.69C13.0193 37.5967 13.3527 37.55 13.6993 37.55ZM13.9593 40.41C13.2927 40.4367 12.8293 40.5433 12.5693 40.73C12.316 40.9167 12.1893 41.18 12.1893 41.52C12.1893 41.82 12.2793 42.04 12.4593 42.18C12.646 42.32 12.8827 42.39 13.1693 42.39C13.6227 42.39 13.9993 42.2667 14.2993 42.02C14.5993 41.7667 14.7493 41.38 14.7493 40.86V40.38L13.9593 40.41ZM19.7748 37.54C19.8748 37.54 19.9815 37.5467 20.0948 37.56C20.2148 37.5667 20.3181 37.58 20.4048 37.6L20.2948 38.41C20.2081 38.39 20.1115 38.3733 20.0048 38.36C19.9048 38.3467 19.8081 38.34 19.7148 38.34C19.5081 38.34 19.3115 38.3833 19.1248 38.47C18.9381 38.5567 18.7715 38.68 18.6248 38.84C18.4781 38.9933 18.3615 39.18 18.2748 39.4C18.1948 39.62 18.1548 39.8667 18.1548 40.14V43H17.2748V37.64H17.9948L18.0948 38.62H18.1348C18.2481 38.42 18.3848 38.24 18.5448 38.08C18.7048 37.9133 18.8881 37.7833 19.0948 37.69C19.3015 37.59 19.5281 37.54 19.7748 37.54ZM23.9857 37.54C24.6257 37.54 25.109 37.6967 25.4357 38.01C25.7623 38.3167 25.9257 38.8167 25.9257 39.51V43H25.0557V39.57C25.0557 39.1367 24.959 38.8133 24.7657 38.6C24.5723 38.3867 24.269 38.28 23.8557 38.28C23.2623 38.28 22.8523 38.4467 22.6257 38.78C22.399 39.1133 22.2857 39.5933 22.2857 40.22V43H21.4057V37.64H22.1157L22.2457 38.37H22.2957C22.4157 38.1833 22.5623 38.03 22.7357 37.91C22.9157 37.7833 23.1123 37.69 23.3257 37.63C23.539 37.57 23.759 37.54 23.9857 37.54Z" fill="#A0A8BA"/>
</svg>
