<svg width="34" height="50" viewBox="0 0 34 50" fill="none" xmlns="http://www.w3.org/2000/svg">
<path d="M13 8C13 6.93913 13.4214 5.92172 14.1716 5.17157C14.9217 4.42143 15.9391 4 17 4C18.0609 4 19.0783 4.42143 19.8284 5.17157C20.5786 5.92172 21 6.93913 21 8C21 9.06087 20.5786 10.0783 19.8284 10.8284C19.0783 11.5786 18.0609 12 17 12C15.9391 12 14.9217 11.5786 14.1716 10.8284C13.4214 10.0783 13 9.06087 13 8ZM9.5 16C9.5 14.848 9.933 13.796 10.646 13H7C6.20435 13 5.44129 13.3161 4.87868 13.8787C4.31607 14.4413 4 15.2044 4 16V19.5C4 19.7652 4.10536 20.0196 4.29289 20.2071C4.48043 20.3946 4.73478 20.5 5 20.5H9.5V16ZM24.5 16C24.5019 14.8927 24.0936 13.824 23.354 13H27C27.7956 13 28.5587 13.3161 29.1213 13.8787C29.6839 14.4413 30 15.2044 30 16V19.5C30 19.7652 29.8946 20.0196 29.7071 20.2071C29.5196 20.3946 29.2652 20.5 29 20.5H24.5V16ZM4 23.5C4 23.1022 4.15804 22.7206 4.43934 22.4393C4.72064 22.158 5.10218 22 5.5 22H28.5C28.8978 22 29.2794 22.158 29.5607 22.4393C29.842 22.7206 30 23.1022 30 23.5C30 24.6935 29.5259 25.8381 28.682 26.682C27.8381 27.5259 26.6935 28 25.5 28H8.5C7.30653 28 6.16193 27.5259 5.31802 26.682C4.47411 25.8381 4 24.6935 4 23.5ZM5 8.5C5 7.57174 5.36875 6.6815 6.02513 6.02513C6.6815 5.36875 7.57174 5 8.5 5C9.42826 5 10.3185 5.36875 10.9749 6.02513C11.6313 6.6815 12 7.57174 12 8.5C12 9.42826 11.6313 10.3185 10.9749 10.9749C10.3185 11.6313 9.42826 12 8.5 12C7.57174 12 6.6815 11.6313 6.02513 10.9749C5.36875 10.3185 5 9.42826 5 8.5ZM22 8.5C22 7.57174 22.3687 6.6815 23.0251 6.02513C23.6815 5.36875 24.5717 5 25.5 5C26.4283 5 27.3185 5.36875 27.9749 6.02513C28.6313 6.6815 29 7.57174 29 8.5C29 9.42826 28.6313 10.3185 27.9749 10.9749C27.3185 11.6313 26.4283 12 25.5 12C24.5717 12 23.6815 11.6313 23.0251 10.9749C22.3687 10.3185 22 9.42826 22 8.5ZM11 16C11 15.2044 11.3161 14.4413 11.8787 13.8787C12.4413 13.3161 13.2044 13 14 13H20C20.7956 13 21.5587 13.3161 22.1213 13.8787C22.6839 14.4413 23 15.2044 23 16V20.5H11V16Z" fill="#DCB209"/>
<path d="M1.5409 43H0.640898V35.86H4.6309V36.65H1.5409V39.18H4.4409V39.97H1.5409V43ZM8.20645 37.54C8.30645 37.54 8.41311 37.5467 8.52645 37.56C8.64645 37.5667 8.74978 37.58 8.83645 37.6L8.72645 38.41C8.63978 38.39 8.54311 38.3733 8.43645 38.36C8.33645 38.3467 8.23978 38.34 8.14645 38.34C7.93978 38.34 7.74311 38.3833 7.55645 38.47C7.36978 38.5567 7.20311 38.68 7.05645 38.84C6.90978 38.9933 6.79311 39.18 6.70645 39.4C6.62645 39.62 6.58645 39.8667 6.58645 40.14V43H5.70645V37.64H6.42645L6.52645 38.62H6.56645C6.67978 38.42 6.81645 38.24 6.97645 38.08C7.13645 37.9133 7.31978 37.7833 7.52645 37.69C7.73311 37.59 7.95978 37.54 8.20645 37.54ZM10.7173 37.64V43H9.8373V37.64H10.7173ZM10.2873 35.63C10.4206 35.63 10.5373 35.6767 10.6373 35.77C10.744 35.8567 10.7973 35.9967 10.7973 36.19C10.7973 36.3767 10.744 36.5167 10.6373 36.61C10.5373 36.7033 10.4206 36.75 10.2873 36.75C10.1406 36.75 10.0173 36.7033 9.9173 36.61C9.8173 36.5167 9.7673 36.3767 9.7673 36.19C9.7673 35.9967 9.8173 35.8567 9.9173 35.77C10.0173 35.6767 10.1406 35.63 10.2873 35.63ZM14.4854 37.54C14.9454 37.54 15.3388 37.64 15.6654 37.84C15.9988 38.04 16.2521 38.3233 16.4254 38.69C16.6054 39.05 16.6954 39.4733 16.6954 39.96V40.49H13.0254C13.0388 41.0967 13.1921 41.56 13.4854 41.88C13.7854 42.1933 14.2021 42.35 14.7354 42.35C15.0754 42.35 15.3754 42.32 15.6354 42.26C15.9021 42.1933 16.1754 42.1 16.4554 41.98V42.75C16.1821 42.87 15.9121 42.9567 15.6454 43.01C15.3788 43.07 15.0621 43.1 14.6954 43.1C14.1888 43.1 13.7388 42.9967 13.3454 42.79C12.9588 42.5833 12.6554 42.2767 12.4354 41.87C12.2221 41.4567 12.1154 40.9533 12.1154 40.36C12.1154 39.7733 12.2121 39.27 12.4054 38.85C12.6054 38.43 12.8821 38.1067 13.2354 37.88C13.5954 37.6533 14.0121 37.54 14.4854 37.54ZM14.4754 38.26C14.0554 38.26 13.7221 38.3967 13.4754 38.67C13.2354 38.9367 13.0921 39.31 13.0454 39.79H15.7754C15.7754 39.4833 15.7288 39.2167 15.6354 38.99C15.5421 38.7633 15.3988 38.5867 15.2054 38.46C15.0188 38.3267 14.7754 38.26 14.4754 38.26ZM20.64 37.54C21.28 37.54 21.7633 37.6967 22.09 38.01C22.4166 38.3167 22.58 38.8167 22.58 39.51V43H21.71V39.57C21.71 39.1367 21.6133 38.8133 21.42 38.6C21.2266 38.3867 20.9233 38.28 20.51 38.28C19.9166 38.28 19.5066 38.4467 19.28 38.78C19.0533 39.1133 18.94 39.5933 18.94 40.22V43H18.06V37.64H18.77L18.9 38.37H18.95C19.07 38.1833 19.2166 38.03 19.39 37.91C19.57 37.7833 19.7666 37.69 19.98 37.63C20.1933 37.57 20.4133 37.54 20.64 37.54ZM26.1416 43.1C25.4749 43.1 24.9416 42.87 24.5416 42.41C24.1416 41.9433 23.9416 41.25 23.9416 40.33C23.9416 39.41 24.1416 38.7167 24.5416 38.25C24.9483 37.7767 25.4849 37.54 26.1516 37.54C26.4316 37.54 26.6749 37.5767 26.8816 37.65C27.0883 37.7167 27.2683 37.81 27.4216 37.93C27.5749 38.05 27.7049 38.1833 27.8116 38.33H27.8716C27.8649 38.2433 27.8516 38.1167 27.8316 37.95C27.8183 37.7767 27.8116 37.64 27.8116 37.54V35.4H28.6916V43H27.9816L27.8516 42.28H27.8116C27.7049 42.4333 27.5749 42.5733 27.4216 42.7C27.2683 42.82 27.0849 42.9167 26.8716 42.99C26.6649 43.0633 26.4216 43.1 26.1416 43.1ZM26.2816 42.37C26.8483 42.37 27.2449 42.2167 27.4716 41.91C27.7049 41.5967 27.8216 41.1267 27.8216 40.5V40.34C27.8216 39.6733 27.7116 39.1633 27.4916 38.81C27.2716 38.45 26.8649 38.27 26.2716 38.27C25.7983 38.27 25.4416 38.46 25.2016 38.84C24.9683 39.2133 24.8516 39.7167 24.8516 40.35C24.8516 40.99 24.9683 41.4867 25.2016 41.84C25.4416 42.1933 25.8016 42.37 26.2816 42.37ZM33.8839 41.52C33.8839 41.8667 33.7973 42.1567 33.6239 42.39C33.4506 42.6233 33.2039 42.8 32.8839 42.92C32.5639 43.04 32.1839 43.1 31.7439 43.1C31.3706 43.1 31.0473 43.07 30.7739 43.01C30.5073 42.95 30.2706 42.8667 30.0639 42.76V41.96C30.2773 42.0667 30.5339 42.1667 30.8339 42.26C31.1406 42.3467 31.4506 42.39 31.7639 42.39C32.2106 42.39 32.5339 42.32 32.7339 42.18C32.9339 42.0333 33.0339 41.84 33.0339 41.6C33.0339 41.4667 32.9973 41.3467 32.9239 41.24C32.8506 41.1333 32.7173 41.0267 32.5239 40.92C32.3373 40.8133 32.0673 40.6933 31.7139 40.56C31.3673 40.4267 31.0706 40.2933 30.8239 40.16C30.5773 40.0267 30.3873 39.8667 30.2539 39.68C30.1206 39.4933 30.0539 39.2533 30.0539 38.96C30.0539 38.5067 30.2373 38.1567 30.6039 37.91C30.9773 37.6633 31.4639 37.54 32.0639 37.54C32.3906 37.54 32.6939 37.5733 32.9739 37.64C33.2606 37.7 33.5273 37.7867 33.7739 37.9L33.4739 38.6C33.3273 38.5333 33.1706 38.4767 33.0039 38.43C32.8439 38.3767 32.6806 38.3367 32.5139 38.31C32.3473 38.2767 32.1773 38.26 32.0039 38.26C31.6439 38.26 31.3673 38.32 31.1739 38.44C30.9873 38.5533 30.8939 38.71 30.8939 38.91C30.8939 39.0567 30.9373 39.1833 31.0239 39.29C31.1106 39.39 31.2539 39.49 31.4539 39.59C31.6606 39.6833 31.9339 39.7967 32.2739 39.93C32.6139 40.0567 32.9039 40.1867 33.1439 40.32C33.3839 40.4533 33.5673 40.6167 33.6939 40.81C33.8206 40.9967 33.8839 41.2333 33.8839 41.52Z" fill="white"/>
</svg>
