<svg width="32" height="50" viewBox="0 0 32 50" fill="none" xmlns="http://www.w3.org/2000/svg">
<path d="M21.2667 17.9667C21.8348 17.9667 22.3046 17.7809 22.6761 17.4094C23.0476 17.038 23.2333 16.5682 23.2333 16C23.2333 15.4318 23.0476 14.962 22.6761 14.5906C22.3046 14.2191 21.8348 14.0333 21.2667 14.0333C20.6985 14.0333 20.2287 14.2191 19.8572 14.5906C19.4857 14.962 19.3 15.4318 19.3 16C19.3 16.5682 19.4857 17.038 19.8572 17.4094C20.2287 17.7809 20.6985 17.9667 21.2667 17.9667ZM6.8 28C6.03 28 5.37083 27.7258 4.8225 27.1775C4.27417 26.6292 4 25.97 4 25.2V6.8C4 6.03 4.27417 5.37083 4.8225 4.8225C5.37083 4.27417 6.03 4 6.8 4H25.2C25.97 4 26.6292 4.27417 27.1775 4.8225C27.7258 5.37083 28 6.03 28 6.8V9.9H25.2V6.8H6.8V25.2H25.2V22.0667H28V25.2C28 25.97 27.7258 26.6292 27.1775 27.1775C26.6292 27.7258 25.97 28 25.2 28H6.8ZM17.2404 22.7333C16.5023 22.7333 15.8667 22.469 15.3333 21.9402C14.8 21.4115 14.5333 20.7758 14.5333 20.0333V11.9747C14.5333 11.236 14.7977 10.5944 15.3265 10.05C15.8552 9.50556 16.4908 9.23333 17.2333 9.23333H26.6263C27.3643 9.23333 28 9.50556 28.5333 10.05C29.0667 10.5944 29.3333 11.2357 29.3333 11.9739V20.0261C29.3333 20.7643 29.069 21.4 28.5402 21.9333C28.0114 22.4667 27.3758 22.7333 26.6333 22.7333H17.2404ZM26.5333 19.9333V12.0333H17.3333V19.9333H26.5333Z" fill="#A0A8BA"/>
<path d="M10.6095 35.86L8.70945 43H7.79945L6.40945 38.32C6.36945 38.18 6.32945 38.0367 6.28945 37.89C6.24945 37.7433 6.21279 37.6033 6.17945 37.47C6.14612 37.3367 6.11612 37.2233 6.08945 37.13C6.06945 37.03 6.05612 36.9567 6.04945 36.91C6.04279 36.9567 6.02945 37.03 6.00945 37.13C5.99612 37.2233 5.97279 37.3367 5.93945 37.47C5.90612 37.6033 5.86945 37.7467 5.82945 37.9C5.79612 38.0467 5.75612 38.1967 5.70945 38.35L4.35945 43H3.44945L1.55945 35.86H2.49945L3.60945 40.22C3.64945 40.3733 3.68612 40.5267 3.71945 40.68C3.75279 40.8267 3.78279 40.9733 3.80945 41.12C3.84279 41.26 3.86945 41.3967 3.88945 41.53C3.90945 41.6633 3.92945 41.7933 3.94945 41.92C3.96945 41.7867 3.98945 41.65 4.00945 41.51C4.03612 41.37 4.06612 41.2267 4.09945 41.08C4.13279 40.9267 4.16945 40.7733 4.20945 40.62C4.24945 40.4667 4.28945 40.3167 4.32945 40.17L5.58945 35.86H6.51945L7.82945 40.2C7.87612 40.3533 7.91945 40.51 7.95945 40.67C7.99945 40.8233 8.03612 40.9733 8.06945 41.12C8.10279 41.2667 8.12945 41.41 8.14945 41.55C8.17612 41.6833 8.19945 41.8067 8.21945 41.92C8.23945 41.7533 8.26612 41.58 8.29945 41.4C8.33279 41.2133 8.37279 41.02 8.41945 40.82C8.46612 40.62 8.51612 40.4167 8.56945 40.21L9.66945 35.86H10.6095ZM13.421 37.55C14.0743 37.55 14.5577 37.6933 14.871 37.98C15.1843 38.2667 15.341 38.7233 15.341 39.35V43H14.701L14.531 42.24H14.491C14.3377 42.4333 14.1777 42.5967 14.011 42.73C13.851 42.8567 13.6643 42.95 13.451 43.01C13.2443 43.07 12.991 43.1 12.691 43.1C12.371 43.1 12.081 43.0433 11.821 42.93C11.5677 42.8167 11.3677 42.6433 11.221 42.41C11.0743 42.17 11.001 41.87 11.001 41.51C11.001 40.9767 11.211 40.5667 11.631 40.28C12.051 39.9867 12.6977 39.8267 13.571 39.8L14.481 39.77V39.45C14.481 39.0033 14.3843 38.6933 14.191 38.52C13.9977 38.3467 13.7243 38.26 13.371 38.26C13.091 38.26 12.8243 38.3033 12.571 38.39C12.3177 38.47 12.081 38.5633 11.861 38.67L11.591 38.01C11.8243 37.8833 12.101 37.7767 12.421 37.69C12.741 37.5967 13.0743 37.55 13.421 37.55ZM13.681 40.41C13.0143 40.4367 12.551 40.5433 12.291 40.73C12.0377 40.9167 11.911 41.18 11.911 41.52C11.911 41.82 12.001 42.04 12.181 42.18C12.3677 42.32 12.6043 42.39 12.891 42.39C13.3443 42.39 13.721 42.2667 14.021 42.02C14.321 41.7667 14.471 41.38 14.471 40.86V40.38L13.681 40.41ZM17.8765 43H16.9965V35.4H17.8765V43ZM20.4546 43H19.5746V35.4H20.4546V43ZM24.2227 37.54C24.6827 37.54 25.0761 37.64 25.4027 37.84C25.7361 38.04 25.9894 38.3233 26.1627 38.69C26.3427 39.05 26.4327 39.4733 26.4327 39.96V40.49H22.7627C22.7761 41.0967 22.9294 41.56 23.2227 41.88C23.5227 42.1933 23.9394 42.35 24.4727 42.35C24.8127 42.35 25.1127 42.32 25.3727 42.26C25.6394 42.1933 25.9127 42.1 26.1927 41.98V42.75C25.9194 42.87 25.6494 42.9567 25.3827 43.01C25.1161 43.07 24.7994 43.1 24.4327 43.1C23.9261 43.1 23.4761 42.9967 23.0827 42.79C22.6961 42.5833 22.3927 42.2767 22.1727 41.87C21.9594 41.4567 21.8527 40.9533 21.8527 40.36C21.8527 39.7733 21.9494 39.27 22.1427 38.85C22.3427 38.43 22.6194 38.1067 22.9727 37.88C23.3327 37.6533 23.7494 37.54 24.2227 37.54ZM24.2127 38.26C23.7927 38.26 23.4594 38.3967 23.2127 38.67C22.9727 38.9367 22.8294 39.31 22.7827 39.79H25.5127C25.5127 39.4833 25.4661 39.2167 25.3727 38.99C25.2794 38.7633 25.1361 38.5867 24.9427 38.46C24.7561 38.3267 24.5127 38.26 24.2127 38.26ZM29.5873 42.38C29.7206 42.38 29.8573 42.37 29.9973 42.35C30.1373 42.3233 30.2506 42.2967 30.3373 42.27V42.94C30.2439 42.9867 30.1106 43.0233 29.9373 43.05C29.7639 43.0833 29.5973 43.1 29.4373 43.1C29.1573 43.1 28.8973 43.0533 28.6573 42.96C28.4239 42.86 28.2339 42.69 28.0873 42.45C27.9406 42.21 27.8673 41.8733 27.8673 41.44V38.32H27.1073V37.9L27.8773 37.55L28.2273 36.41H28.7473V37.64H30.2973V38.32H28.7473V41.42C28.7473 41.7467 28.8239 41.99 28.9773 42.15C29.1373 42.3033 29.3406 42.38 29.5873 42.38Z" fill="#A0A8BA"/>
</svg>
