<svg width="32" height="50" viewBox="0 0 32 50" fill="none" xmlns="http://www.w3.org/2000/svg">
<path d="M12.4045 8.2788L9.20523 11.4686C8.61771 12.0546 8.078 12.5914 7.65152 13.078C7.36292 13.3988 7.10239 13.7437 6.87278 14.109L6.84259 14.0776L6.72307 13.9594C6.16573 13.4213 5.51185 12.993 4.79572 12.6971L4.64098 12.6342L4.16417 12.4456C4.01569 12.3871 3.88411 12.2925 3.78133 12.1705C3.67856 12.0484 3.6078 11.9027 3.57547 11.7465C3.54314 11.5903 3.55024 11.4285 3.59613 11.2757C3.64202 11.123 3.72526 10.984 3.83834 10.8714C5.24736 9.46572 6.93946 7.77964 7.7572 7.44142C8.46743 7.14492 9.24454 7.04545 10.0066 7.15349C10.6935 7.25533 11.3427 7.60864 12.4045 8.2788ZM17.8682 25.0641C18.1261 25.3257 18.296 25.5105 18.452 25.7079C18.6558 25.9686 18.8378 26.2443 18.998 26.5352C19.1766 26.8621 19.3163 27.2104 19.5943 27.9082C19.6489 28.0402 19.7352 28.1566 19.8456 28.2473C19.956 28.3379 20.0871 28.3999 20.2272 28.4278C20.3673 28.4556 20.5122 28.4485 20.6489 28.407C20.7856 28.3655 20.9099 28.2909 21.0109 28.1898L21.1166 28.0855C22.5256 26.6811 24.2177 24.995 24.5574 24.1815C24.8557 23.4748 24.9553 22.7001 24.8455 21.9409C24.7435 21.2557 24.39 20.6082 23.717 19.5495L20.5064 22.7481C19.905 23.3479 19.354 23.8973 18.8546 24.3273C18.5564 24.5863 18.2293 24.8428 17.8682 25.0641Z" fill="#A0A8BA"/>
<path fill-rule="evenodd" clip-rule="evenodd" d="M19.0069 21.5737L26.3128 14.2672C27.3649 13.2157 27.8909 12.6893 28.1671 12.0213C28.4432 11.3533 28.4444 10.6077 28.4444 9.12004V8.40944C28.4444 6.12098 28.4444 4.97675 27.7335 4.26616C27.0225 3.55556 25.8792 3.55556 23.5914 3.55556H22.8791C21.3922 3.55556 20.6488 3.55556 19.9803 3.83253C19.3105 4.1095 18.7845 4.63587 17.7312 5.68735L10.4265 12.9939C9.19703 14.2221 8.43483 14.9853 8.13994 15.721C8.0486 15.9445 8.00109 16.1837 8 16.4253C8 17.4304 8.80843 18.24 10.4265 19.858L10.644 20.0748L13.1905 17.4818C13.2768 17.3938 13.3797 17.3238 13.493 17.2757C13.6064 17.2276 13.7281 17.2023 13.8512 17.2014C13.9744 17.2005 14.0964 17.2239 14.2105 17.2702C14.3246 17.3166 14.4285 17.3851 14.5162 17.4718C14.6039 17.5584 14.6737 17.6615 14.7217 17.7753C14.7697 17.889 14.7948 18.0111 14.7957 18.1345C14.7967 18.258 14.7733 18.3805 14.7271 18.4949C14.6808 18.6093 14.6126 18.7135 14.5262 18.8015L11.9709 21.402L12.1421 21.5737C13.7602 23.1904 14.5699 24 15.5745 24C15.7969 24 16.0093 23.9612 16.223 23.8822C16.9765 23.604 17.7462 22.8345 19.0069 21.5737ZM22.4393 12.9939C21.9836 13.4493 21.3665 13.705 20.7231 13.705C20.0798 13.705 19.4627 13.4493 19.0069 12.9939C18.7814 12.7691 18.6024 12.5017 18.4802 12.2073C18.3581 11.9128 18.2952 11.5971 18.2952 11.2782C18.2952 10.9592 18.3581 10.6435 18.4802 10.349C18.6024 10.0546 18.7814 9.78724 19.0069 9.56244C19.4627 9.107 20.0798 8.85128 20.7231 8.85128C21.3665 8.85128 21.9836 9.107 22.4393 9.56244C22.6649 9.78724 22.8438 10.0546 22.966 10.349C23.0881 10.6435 23.151 10.9592 23.151 11.2782C23.151 11.5971 23.0881 11.9128 22.966 12.2073C22.8438 12.5017 22.6649 12.7691 22.4393 12.9939Z" fill="#A0A8BA"/>
<path d="M9.19203 35.86C10.1254 35.86 10.8054 36.0433 11.232 36.41C11.6587 36.7767 11.872 37.2933 11.872 37.96C11.872 38.2533 11.822 38.5367 11.722 38.81C11.6287 39.0767 11.472 39.3167 11.252 39.53C11.032 39.7433 10.7387 39.9133 10.372 40.04C10.0054 40.16 9.55536 40.22 9.02203 40.22H8.20203V43H7.30203V35.86H9.19203ZM9.11203 36.63H8.20203V39.45H8.92203C9.37536 39.45 9.75203 39.4033 10.052 39.31C10.352 39.21 10.5754 39.0533 10.722 38.84C10.8687 38.6267 10.942 38.3467 10.942 38C10.942 37.54 10.7954 37.1967 10.502 36.97C10.2087 36.7433 9.74536 36.63 9.11203 36.63ZM14.1167 43H13.2367V35.4H14.1167V43ZM17.8448 37.55C18.4982 37.55 18.9815 37.6933 19.2948 37.98C19.6082 38.2667 19.7648 38.7233 19.7648 39.35V43H19.1248L18.9548 42.24H18.9148C18.7615 42.4333 18.6015 42.5967 18.4348 42.73C18.2748 42.8567 18.0882 42.95 17.8748 43.01C17.6682 43.07 17.4148 43.1 17.1148 43.1C16.7948 43.1 16.5048 43.0433 16.2448 42.93C15.9915 42.8167 15.7915 42.6433 15.6448 42.41C15.4982 42.17 15.4248 41.87 15.4248 41.51C15.4248 40.9767 15.6348 40.5667 16.0548 40.28C16.4748 39.9867 17.1215 39.8267 17.9948 39.8L18.9048 39.77V39.45C18.9048 39.0033 18.8082 38.6933 18.6148 38.52C18.4215 38.3467 18.1482 38.26 17.7948 38.26C17.5148 38.26 17.2482 38.3033 16.9948 38.39C16.7415 38.47 16.5048 38.5633 16.2848 38.67L16.0148 38.01C16.2482 37.8833 16.5248 37.7767 16.8448 37.69C17.1648 37.5967 17.4982 37.55 17.8448 37.55ZM18.1048 40.41C17.4382 40.4367 16.9748 40.5433 16.7148 40.73C16.4615 40.9167 16.3348 41.18 16.3348 41.52C16.3348 41.82 16.4248 42.04 16.6048 42.18C16.7915 42.32 17.0282 42.39 17.3148 42.39C17.7682 42.39 18.1448 42.2667 18.4448 42.02C18.7448 41.7667 18.8948 41.38 18.8948 40.86V40.38L18.1048 40.41ZM20.5803 37.64H21.5203L22.6803 40.69C22.747 40.87 22.807 41.0433 22.8603 41.21C22.9203 41.3767 22.9736 41.54 23.0203 41.7C23.067 41.8533 23.1036 42.0033 23.1303 42.15H23.1703C23.2103 41.9833 23.2736 41.7667 23.3603 41.5C23.447 41.2267 23.537 40.9533 23.6303 40.68L24.7203 37.64H25.6703L23.3603 43.74C23.2336 44.0733 23.0836 44.3633 22.9103 44.61C22.7436 44.8633 22.537 45.0567 22.2903 45.19C22.0503 45.33 21.757 45.4 21.4103 45.4C21.2503 45.4 21.1103 45.39 20.9903 45.37C20.8703 45.3567 20.767 45.34 20.6803 45.32V44.62C20.7536 44.6333 20.8403 44.6467 20.9403 44.66C21.047 44.6733 21.157 44.68 21.2703 44.68C21.477 44.68 21.6536 44.64 21.8003 44.56C21.9536 44.4867 22.0836 44.3767 22.1903 44.23C22.297 44.09 22.387 43.9233 22.4603 43.73L22.7403 43.02L20.5803 37.64Z" fill="#A0A8BA"/>
</svg>
