<svg width="32" height="50" viewBox="0 0 32 50" fill="none" xmlns="http://www.w3.org/2000/svg">
<path d="M28 28H4V25.3333H28V28ZM10.6667 13.3333H5.33333V22.6667H10.6667V13.3333ZM18.6667 8H13.3333V22.6667H18.6667V8ZM26.6667 4H21.3333V22.6667H26.6667V4Z" fill="#F0B90B"/>
<path d="M9.46727 41.09C9.46727 41.5167 9.36393 41.88 9.15727 42.18C8.9506 42.4733 8.65393 42.7 8.26727 42.86C7.88727 43.02 7.43727 43.1 6.91727 43.1C6.6506 43.1 6.39393 43.0867 6.14727 43.06C5.90727 43.0333 5.68727 42.9967 5.48727 42.95C5.28727 42.8967 5.1106 42.8333 4.95727 42.76V41.9C5.19727 42.0067 5.49393 42.1033 5.84727 42.19C6.20727 42.2767 6.57727 42.32 6.95727 42.32C7.3106 42.32 7.60727 42.2733 7.84727 42.18C8.08727 42.0867 8.26727 41.9533 8.38727 41.78C8.50727 41.6067 8.56727 41.4033 8.56727 41.17C8.56727 40.9367 8.51727 40.74 8.41727 40.58C8.31727 40.42 8.14393 40.2733 7.89727 40.14C7.65727 40 7.3206 39.8533 6.88727 39.7C6.5806 39.5867 6.3106 39.4667 6.07727 39.34C5.8506 39.2067 5.6606 39.0567 5.50727 38.89C5.35393 38.7233 5.23727 38.5333 5.15727 38.32C5.08393 38.1067 5.04727 37.86 5.04727 37.58C5.04727 37.2 5.14393 36.8767 5.33727 36.61C5.5306 36.3367 5.79727 36.1267 6.13727 35.98C6.48393 35.8333 6.8806 35.76 7.32727 35.76C7.7206 35.76 8.0806 35.7967 8.40727 35.87C8.73393 35.9433 9.0306 36.04 9.29727 36.16L9.01727 36.93C8.7706 36.8233 8.5006 36.7333 8.20727 36.66C7.9206 36.5867 7.6206 36.55 7.30727 36.55C7.00727 36.55 6.75727 36.5933 6.55727 36.68C6.35727 36.7667 6.20727 36.89 6.10727 37.05C6.00727 37.2033 5.95727 37.3833 5.95727 37.59C5.95727 37.83 6.00727 38.03 6.10727 38.19C6.20727 38.35 6.3706 38.4933 6.59727 38.62C6.82393 38.7467 7.1306 38.8833 7.51727 39.03C7.93727 39.1833 8.2906 39.35 8.57727 39.53C8.8706 39.7033 9.0906 39.9133 9.23727 40.16C9.3906 40.4067 9.46727 40.7167 9.46727 41.09ZM12.5755 42.38C12.7089 42.38 12.8455 42.37 12.9855 42.35C13.1255 42.3233 13.2389 42.2967 13.3255 42.27V42.94C13.2322 42.9867 13.0989 43.0233 12.9255 43.05C12.7522 43.0833 12.5855 43.1 12.4255 43.1C12.1455 43.1 11.8855 43.0533 11.6455 42.96C11.4122 42.86 11.2222 42.69 11.0755 42.45C10.9289 42.21 10.8555 41.8733 10.8555 41.44V38.32H10.0955V37.9L10.8655 37.55L11.2155 36.41H11.7355V37.64H13.2855V38.32H11.7355V41.42C11.7355 41.7467 11.8122 41.99 11.9655 42.15C12.1255 42.3033 12.3289 42.38 12.5755 42.38ZM16.4288 37.55C17.0822 37.55 17.5655 37.6933 17.8788 37.98C18.1922 38.2667 18.3488 38.7233 18.3488 39.35V43H17.7088L17.5388 42.24H17.4988C17.3455 42.4333 17.1855 42.5967 17.0188 42.73C16.8588 42.8567 16.6722 42.95 16.4588 43.01C16.2522 43.07 15.9988 43.1 15.6988 43.1C15.3788 43.1 15.0888 43.0433 14.8288 42.93C14.5755 42.8167 14.3755 42.6433 14.2288 42.41C14.0822 42.17 14.0088 41.87 14.0088 41.51C14.0088 40.9767 14.2188 40.5667 14.6388 40.28C15.0588 39.9867 15.7055 39.8267 16.5788 39.8L17.4888 39.77V39.45C17.4888 39.0033 17.3922 38.6933 17.1988 38.52C17.0055 38.3467 16.7322 38.26 16.3788 38.26C16.0988 38.26 15.8322 38.3033 15.5788 38.39C15.3255 38.47 15.0888 38.5633 14.8688 38.67L14.5988 38.01C14.8322 37.8833 15.1088 37.7767 15.4288 37.69C15.7488 37.5967 16.0822 37.55 16.4288 37.55ZM16.6888 40.41C16.0222 40.4367 15.5588 40.5433 15.2988 40.73C15.0455 40.9167 14.9188 41.18 14.9188 41.52C14.9188 41.82 15.0088 42.04 15.1888 42.18C15.3755 42.32 15.6122 42.39 15.8988 42.39C16.3522 42.39 16.7288 42.2667 17.0288 42.02C17.3288 41.7667 17.4788 41.38 17.4788 40.86V40.38L16.6888 40.41ZM21.7943 42.38C21.9276 42.38 22.0643 42.37 22.2043 42.35C22.3443 42.3233 22.4576 42.2967 22.5443 42.27V42.94C22.451 42.9867 22.3176 43.0233 22.1443 43.05C21.971 43.0833 21.8043 43.1 21.6443 43.1C21.3643 43.1 21.1043 43.0533 20.8643 42.96C20.631 42.86 20.441 42.69 20.2943 42.45C20.1476 42.21 20.0743 41.8733 20.0743 41.44V38.32H19.3143V37.9L20.0843 37.55L20.4343 36.41H20.9543V37.64H22.5043V38.32H20.9543V41.42C20.9543 41.7467 21.031 41.99 21.1843 42.15C21.3443 42.3033 21.5476 42.38 21.7943 42.38ZM27.1076 41.52C27.1076 41.8667 27.0209 42.1567 26.8476 42.39C26.6742 42.6233 26.4276 42.8 26.1076 42.92C25.7876 43.04 25.4076 43.1 24.9676 43.1C24.5942 43.1 24.2709 43.07 23.9976 43.01C23.7309 42.95 23.4942 42.8667 23.2876 42.76V41.96C23.5009 42.0667 23.7576 42.1667 24.0576 42.26C24.3642 42.3467 24.6742 42.39 24.9876 42.39C25.4342 42.39 25.7576 42.32 25.9576 42.18C26.1576 42.0333 26.2576 41.84 26.2576 41.6C26.2576 41.4667 26.2209 41.3467 26.1476 41.24C26.0742 41.1333 25.9409 41.0267 25.7476 40.92C25.5609 40.8133 25.2909 40.6933 24.9376 40.56C24.5909 40.4267 24.2942 40.2933 24.0476 40.16C23.8009 40.0267 23.6109 39.8667 23.4776 39.68C23.3442 39.4933 23.2776 39.2533 23.2776 38.96C23.2776 38.5067 23.4609 38.1567 23.8276 37.91C24.2009 37.6633 24.6876 37.54 25.2876 37.54C25.6142 37.54 25.9176 37.5733 26.1976 37.64C26.4842 37.7 26.7509 37.7867 26.9976 37.9L26.6976 38.6C26.5509 38.5333 26.3942 38.4767 26.2276 38.43C26.0676 38.3767 25.9042 38.3367 25.7376 38.31C25.5709 38.2767 25.4009 38.26 25.2276 38.26C24.8676 38.26 24.5909 38.32 24.3976 38.44C24.2109 38.5533 24.1176 38.71 24.1176 38.91C24.1176 39.0567 24.1609 39.1833 24.2476 39.29C24.3342 39.39 24.4776 39.49 24.6776 39.59C24.8842 39.6833 25.1576 39.7967 25.4976 39.93C25.8376 40.0567 26.1276 40.1867 26.3676 40.32C26.6076 40.4533 26.7909 40.6167 26.9176 40.81C27.0442 40.9967 27.1076 41.2333 27.1076 41.52Z" fill="white"/>
</svg>
