<svg width="14" height="14" viewBox="0 0 14 14" fill="none" xmlns="http://www.w3.org/2000/svg">
<path d="M5.26979 3.47839L3.78637 4.9583C3.51396 5.23014 3.26371 5.47922 3.06596 5.70497C2.93214 5.8538 2.81134 6.01383 2.70487 6.18331L2.69087 6.16872L2.63546 6.11389C2.37703 5.86423 2.07384 5.66554 1.74179 5.52822L1.67004 5.49905L1.44896 5.41156C1.38011 5.38441 1.3191 5.34055 1.27144 5.28392C1.22379 5.2273 1.19098 5.1597 1.17599 5.08723C1.161 5.01476 1.16429 4.93969 1.18557 4.86881C1.20685 4.79792 1.24544 4.73345 1.29787 4.68122C1.95121 4.02905 2.73579 3.2468 3.11496 3.08989C3.44427 2.95233 3.8046 2.90618 4.15796 2.9563C4.47646 3.00355 4.77746 3.16747 5.26979 3.47839ZM7.80321 11.2659C7.92279 11.3872 8.00154 11.473 8.07387 11.5646C8.16837 11.6855 8.25276 11.8134 8.32704 11.9484C8.40987 12.1001 8.47462 12.2616 8.60354 12.5854C8.62884 12.6466 8.66886 12.7007 8.72005 12.7427C8.77124 12.7847 8.83203 12.8135 8.897 12.8264C8.96197 12.8394 9.02914 12.8361 9.09252 12.8168C9.15591 12.7975 9.21357 12.7629 9.26037 12.7161L9.30937 12.6676C9.96271 12.0161 10.7473 11.2338 10.9048 10.8564C11.0431 10.5285 11.0893 10.1691 11.0384 9.81689C10.9911 9.49897 10.8272 9.19855 10.5151 8.70739L9.02646 10.1914C8.74762 10.4696 8.49212 10.7246 8.26054 10.9241C8.12229 11.0442 7.97062 11.1632 7.80321 11.2659Z" fill="#FBD741"/>
<path fill-rule="evenodd" clip-rule="evenodd" d="M8.4274 9.55327L11.8382 6.15244C12.3293 5.66302 12.5749 5.41802 12.7038 5.1071C12.8327 4.79619 12.8333 4.4491 12.8333 3.75669V3.42594C12.8333 2.36077 12.8333 1.82819 12.5014 1.49744C12.1695 1.16669 11.6357 1.16669 10.5677 1.16669H10.2352C9.54098 1.16669 9.1939 1.16669 8.88182 1.2956C8.56915 1.42452 8.32357 1.66952 7.83182 2.15894L4.42165 5.55977C3.84765 6.13144 3.49182 6.48669 3.35415 6.8291C3.31151 6.93317 3.28933 7.04448 3.28882 7.15694C3.28882 7.62477 3.66623 8.0016 4.42165 8.75469L4.52315 8.8556L5.71198 7.64869C5.75232 7.60774 5.80032 7.57514 5.85325 7.55275C5.90618 7.53035 5.963 7.51861 6.02048 7.51817C6.07795 7.51774 6.13494 7.52863 6.18821 7.55022C6.24147 7.57182 6.28996 7.60369 6.3309 7.64402C6.37185 7.68435 6.40445 7.73236 6.42684 7.78529C6.44923 7.83822 6.46098 7.89504 6.46142 7.95251C6.46185 8.00998 6.45096 8.06698 6.42937 8.12024C6.40777 8.1735 6.3759 8.22199 6.33557 8.26294L5.14265 9.47335L5.22257 9.55327C5.97798 10.3058 6.35598 10.6826 6.82498 10.6826C6.92882 10.6826 7.02798 10.6645 7.12773 10.6278C7.47948 10.4983 7.83882 10.1401 8.4274 9.55327ZM10.0298 5.55977C9.81705 5.77175 9.52895 5.89078 9.22861 5.89078C8.92827 5.89078 8.64017 5.77175 8.4274 5.55977C8.32211 5.45514 8.23855 5.33071 8.18152 5.19366C8.1245 5.05661 8.09515 4.90963 8.09515 4.76119C8.09515 4.61274 8.1245 4.46577 8.18152 4.32872C8.23855 4.19166 8.32211 4.06724 8.4274 3.9626C8.64017 3.75062 8.92827 3.63159 9.22861 3.63159C9.52895 3.63159 9.81705 3.75062 10.0298 3.9626C10.1351 4.06724 10.2187 4.19166 10.2757 4.32872C10.3327 4.46577 10.3621 4.61274 10.3621 4.76119C10.3621 4.90963 10.3327 5.05661 10.2757 5.19366C10.2187 5.33071 10.1351 5.45514 10.0298 5.55977Z" fill="#FBD741"/>
</svg>
