<svg width="68" height="28" viewBox="0 0 68 28" fill="none" xmlns="http://www.w3.org/2000/svg">
<path d="M1 8C1 4.13401 4.13401 1 8 1H66C66.5523 1 67 1.44772 67 2V20C67 23.866 63.866 27 60 27H2C1.44772 27 1 26.5523 1 26V8Z" stroke="#FBD741" stroke-width="2"/>
<path d="M23.8249 16.228C23.8249 16.816 23.6802 17.3293 23.3909 17.768C23.1016 18.2067 22.6816 18.5473 22.1309 18.79C21.5896 19.0233 20.9269 19.14 20.1429 19.14C19.7976 19.14 19.4569 19.1167 19.1209 19.07C18.7942 19.0233 18.4769 18.958 18.1689 18.874C17.8702 18.7807 17.5856 18.6687 17.3149 18.538V16.564C17.7909 16.7693 18.2809 16.9607 18.7849 17.138C19.2982 17.306 19.8069 17.39 20.3109 17.39C20.6562 17.39 20.9316 17.3433 21.1369 17.25C21.3516 17.1567 21.5056 17.0307 21.5989 16.872C21.7016 16.7133 21.7529 16.5313 21.7529 16.326C21.7529 16.074 21.6642 15.8593 21.4869 15.682C21.3189 15.5047 21.0902 15.3413 20.8009 15.192C20.5116 15.0333 20.1802 14.8653 19.8069 14.688C19.5736 14.576 19.3216 14.4453 19.0509 14.296C18.7802 14.1373 18.5189 13.946 18.2669 13.722C18.0242 13.4887 17.8236 13.2087 17.6649 12.882C17.5062 12.5553 17.4269 12.1633 17.4269 11.706C17.4269 11.1087 17.5622 10.6 17.8329 10.18C18.1129 9.75067 18.5049 9.424 19.0089 9.2C19.5222 8.976 20.1242 8.864 20.8149 8.864C21.3376 8.864 21.8322 8.92467 22.2989 9.046C22.7749 9.16733 23.2696 9.34 23.7829 9.564L23.0969 11.216C22.6396 11.0293 22.2289 10.8847 21.8649 10.782C21.5009 10.6793 21.1276 10.628 20.7449 10.628C20.4836 10.628 20.2596 10.67 20.0729 10.754C19.8862 10.838 19.7416 10.9547 19.6389 11.104C19.5456 11.2533 19.4989 11.4307 19.4989 11.636C19.4989 11.8693 19.5689 12.07 19.7089 12.238C19.8489 12.3967 20.0589 12.5507 20.3389 12.7C20.6189 12.8493 20.9689 13.0267 21.3889 13.232C21.9022 13.4747 22.3362 13.7267 22.6909 13.988C23.0549 14.2493 23.3349 14.5573 23.5309 14.912C23.7269 15.2667 23.8249 15.7053 23.8249 16.228ZM28.6938 17.474C28.9272 17.474 29.1512 17.4507 29.3658 17.404C29.5805 17.3573 29.7952 17.3013 30.0098 17.236V18.79C29.7858 18.8833 29.5058 18.9627 29.1698 19.028C28.8432 19.1027 28.4838 19.14 28.0918 19.14C27.6345 19.14 27.2238 19.0653 26.8598 18.916C26.5052 18.7667 26.2205 18.51 26.0058 18.146C25.8005 17.7727 25.6978 17.2593 25.6978 16.606V12.924H24.7038V12.042L25.8518 11.342L26.4538 9.732H27.7838V11.356H29.9258V12.924H27.7838V16.606C27.7838 16.8953 27.8678 17.1147 28.0358 17.264C28.2038 17.404 28.4232 17.474 28.6938 17.474ZM34.6801 11.202C35.7068 11.202 36.4908 11.426 37.0321 11.874C37.5828 12.3127 37.8581 12.9893 37.8581 13.904V19H36.4021L35.9961 17.964H35.9401C35.7255 18.2347 35.5015 18.4587 35.2681 18.636C35.0441 18.8133 34.7828 18.9393 34.4841 19.014C34.1948 19.098 33.8355 19.14 33.4061 19.14C32.9581 19.14 32.5521 19.056 32.1881 18.888C31.8335 18.7107 31.5535 18.4447 31.3481 18.09C31.1428 17.726 31.0401 17.2687 31.0401 16.718C31.0401 15.906 31.3248 15.3087 31.8941 14.926C32.4635 14.534 33.3175 14.3193 34.4561 14.282L35.7861 14.24V13.904C35.7861 13.5027 35.6788 13.2087 35.4641 13.022C35.2588 12.8353 34.9695 12.742 34.5961 12.742C34.2228 12.742 33.8588 12.798 33.5041 12.91C33.1495 13.0127 32.7948 13.1433 32.4401 13.302L31.7541 11.888C32.1648 11.6733 32.6175 11.5053 33.1121 11.384C33.6161 11.2627 34.1388 11.202 34.6801 11.202ZM34.9741 15.486C34.3021 15.5047 33.8355 15.626 33.5741 15.85C33.3128 16.074 33.1821 16.368 33.1821 16.732C33.1821 17.0493 33.2755 17.278 33.4621 17.418C33.6488 17.5487 33.8915 17.614 34.1901 17.614C34.6381 17.614 35.0161 17.4833 35.3241 17.222C35.6321 16.9513 35.7861 16.5733 35.7861 16.088V15.458L34.9741 15.486ZM44.2634 11.216C44.366 11.216 44.4874 11.2207 44.6274 11.23C44.7674 11.2393 44.8794 11.2533 44.9634 11.272L44.8094 13.232C44.744 13.2133 44.646 13.1993 44.5154 13.19C44.394 13.1713 44.2867 13.162 44.1934 13.162C43.9227 13.162 43.6614 13.1993 43.4094 13.274C43.1574 13.3393 42.9287 13.4467 42.7234 13.596C42.5274 13.7453 42.3687 13.946 42.2474 14.198C42.1354 14.4407 42.0794 14.744 42.0794 15.108V19H39.9934V11.356H41.5754L41.8834 12.644H41.9814C42.1307 12.3827 42.3174 12.1447 42.5414 11.93C42.7654 11.7153 43.022 11.5427 43.3114 11.412C43.61 11.2813 43.9274 11.216 44.2634 11.216ZM49.5708 17.474C49.8041 17.474 50.0281 17.4507 50.2428 17.404C50.4575 17.3573 50.6721 17.3013 50.8868 17.236V18.79C50.6628 18.8833 50.3828 18.9627 50.0468 19.028C49.7201 19.1027 49.3608 19.14 48.9688 19.14C48.5115 19.14 48.1008 19.0653 47.7368 18.916C47.3821 18.7667 47.0975 18.51 46.8828 18.146C46.6775 17.7727 46.5748 17.2593 46.5748 16.606V12.924H45.5808V12.042L46.7288 11.342L47.3308 9.732H48.6608V11.356H50.8028V12.924H48.6608V16.606C48.6608 16.8953 48.7448 17.1147 48.9128 17.264C49.0808 17.404 49.3001 17.474 49.5708 17.474Z" fill="#FCE069"/>
</svg>
