<svg width="20" height="20" viewBox="0 0 20 20" fill="none" xmlns="http://www.w3.org/2000/svg">
<path d="M13.2917 11.2292C13.6468 11.2292 13.9404 11.1131 14.1726 10.8809C14.4047 10.6487 14.5208 10.3551 14.5208 10C14.5208 9.6449 14.4047 9.35127 14.1726 9.1191C13.9404 8.88692 13.6468 8.77083 13.2917 8.77083C12.9366 8.77083 12.6429 8.88692 12.4108 9.1191C12.1786 9.35127 12.0625 9.6449 12.0625 10C12.0625 10.3551 12.1786 10.6487 12.4108 10.8809C12.6429 11.1131 12.9366 11.2292 13.2917 11.2292ZM4.25 17.5C3.76875 17.5 3.35677 17.3286 3.01406 16.9859C2.67135 16.6432 2.5 16.2313 2.5 15.75V4.25C2.5 3.76875 2.67135 3.35677 3.01406 3.01406C3.35677 2.67135 3.76875 2.5 4.25 2.5H15.75C16.2313 2.5 16.6432 2.67135 16.9859 3.01406C17.3286 3.35677 17.5 3.76875 17.5 4.25V6.1875H15.75V4.25H4.25V15.75H15.75V13.7917H17.5V15.75C17.5 16.2313 17.3286 16.6432 16.9859 16.9859C16.6432 17.3286 16.2313 17.5 15.75 17.5H4.25ZM10.7752 14.2083C10.314 14.2083 9.91667 14.0431 9.58333 13.7126C9.25 13.3822 9.08333 12.9849 9.08333 12.5208V7.48421C9.08333 7.02251 9.24857 6.62153 9.57904 6.28125C9.9095 5.94097 10.3068 5.77083 10.7708 5.77083H16.6414C17.1027 5.77083 17.5 5.94097 17.8333 6.28125C18.1667 6.62153 18.3333 7.02233 18.3333 7.48367V12.5163C18.3333 12.9777 18.1681 13.375 17.8376 13.7083C17.5072 14.0417 17.1099 14.2083 16.6458 14.2083H10.7752ZM16.5833 12.4583V7.52083H10.8333V12.4583H16.5833Z" fill="#F3F4F6"/>
</svg>
